<?xml version="1.0" encoding="iso-8859-1"?>
<!-- Generator: Adobe Illustrator 19.0.0, SVG Export Plug-In . SVG Version: 6.00 Build 0)  -->
<svg version="1.1" id="Layer_1" xmlns="http://www.w3.org/2000/svg" xmlns:xlink="http://www.w3.org/1999/xlink" x="0px" y="0px"
	 viewBox="0 0 512 512" style="enable-background:new 0 0 512 512;" xml:space="preserve">
<circle style="fill:#324A5E;" cx="256" cy="256" r="256"/>
<path style="fill:#2B3B4E;" d="M397.15,165.779l-10.137,9.666l-49.817-49.816l-76.598,79.803l-34.335,31.129l48.369,48.369
	l-8.22,11.583l41.177,41.177l-4.322,4.322l-17.272-17.272l-0.574,1.26l-84.154-84.152l-12.795,2.438l-33.321-33.323l-46.258,27.224
	l-39.076,58.108l34.221,34.221l-3.337,11.895L269.91,511.619c127.081-6.806,229.529-106.291,241-232.077L397.15,165.779z"/>
<path style="fill:#FD8469;" d="M212.04,296.296v-28.444h-16.015c-1.343-5.218-3.419-10.142-6.094-14.667l11.336-11.336
	l-20.113-20.113l-11.336,11.336c-4.527-2.674-9.449-4.749-14.667-6.094v-16.015h-28.444v16.015
	c-5.218,1.343-10.142,3.419-14.667,6.094l-11.336-11.336l-20.113,20.113l11.336,11.336c-2.674,4.525-4.749,9.447-6.092,14.665
	H69.818v28.444h16.015c1.343,5.22,3.419,10.142,6.092,14.669L80.589,322.3l20.113,20.113l11.336-11.335
	c4.527,2.674,9.449,4.751,14.669,6.094v16.015h28.444v-16.015c5.218-1.343,10.14-3.419,14.667-6.094l11.338,11.338l20.113-20.113
	l-11.338-11.338c2.675-4.527,4.751-9.449,6.094-14.669H212.04z M140.929,307.933c-14.281,0-25.859-11.578-25.859-25.859
	s11.578-25.859,25.859-25.859s25.859,11.578,25.859,25.859S155.212,307.933,140.929,307.933z"/>
<g>
	<path style="fill:#FC6F58;" d="M212.04,296.296v-28.444h-16.015c-1.343-5.218-3.419-10.142-6.094-14.667l11.336-11.336
		l-20.113-20.113l-11.336,11.336c-4.527-2.674-9.449-4.749-14.667-6.094v-16.015h-14.077v45.259
		c14.214,0.079,25.714,11.619,25.714,25.852c0,14.233-11.5,25.772-25.714,25.852v45.259h14.077V337.17
		c5.218-1.343,10.14-3.419,14.667-6.094l11.338,11.338l20.113-20.113l-11.338-11.338c2.675-4.527,4.751-9.449,6.094-14.669h16.015
		V296.296z"/>
	<path style="fill:#FC6F58;" d="M325.818,384.474v-19.911h-11.211c-0.94-3.653-2.393-7.099-4.265-10.268l7.935-7.935l-14.079-14.079
		l-7.935,7.935c-3.169-1.872-6.615-3.325-10.268-4.265v-11.211h-19.911v11.211c-3.653,0.941-7.099,2.393-10.268,4.265l-7.935-7.935
		l-14.079,14.079l7.935,7.935c-1.872,3.169-3.325,6.613-4.265,10.266h-11.211v19.911h11.211c0.94,3.653,2.393,7.099,4.265,10.268
		l-7.935,7.935l14.079,14.079l7.935-7.935c3.169,1.872,6.615,3.325,10.268,4.267v11.211h19.911v-11.211
		c3.653-0.941,7.099-2.393,10.266-4.265l7.937,7.937l14.079-14.079l-7.937-7.937c1.872-3.169,3.325-6.615,4.265-10.268H325.818z
		 M276.04,392.62c-9.997,0-18.101-8.104-18.101-18.101c0-9.997,8.104-18.101,18.101-18.101s18.101,8.104,18.101,18.101
		C294.141,384.515,286.037,392.62,276.04,392.62z"/>
</g>
<path style="fill:#F1543F;" d="M325.818,384.474v-19.911h-11.211c-0.94-3.653-2.393-7.099-4.265-10.268l7.935-7.935l-14.079-14.079
	l-7.935,7.937c-3.169-1.872-6.615-3.325-10.268-4.265v-11.211h-9.883v31.68c9.962,0.04,18.029,8.125,18.029,18.098
	c0,9.973-8.066,18.058-18.029,18.098v31.68h9.883v-11.211c3.653-0.941,7.099-2.393,10.266-4.265l7.937,7.937l14.079-14.079
	l-7.937-7.937c1.872-3.169,3.325-6.615,4.265-10.268h11.212V384.474z"/>
<path style="fill:#FFD15D;" d="M411.152,236.563v-36.978h-20.82c-1.746-6.785-4.444-13.184-7.921-19.068l14.738-14.738
	l-26.146-26.146l-14.738,14.738c-5.884-3.477-12.283-6.175-19.068-7.921v-20.82h-36.978v20.818
	c-6.785,1.746-13.183,4.444-19.068,7.921l-14.738-14.738l-26.146,26.148l14.738,14.738c-3.477,5.884-6.175,12.283-7.921,19.066
	h-20.82v36.978h20.818c1.746,6.785,4.444,13.184,7.921,19.068l-14.738,14.736l26.146,26.146l14.736-14.736
	c5.885,3.477,12.285,6.177,19.07,7.923v20.818h36.978v-20.818c6.784-1.746,13.183-4.444,19.066-7.921L371,296.517l26.146-26.148
	l-14.739-14.739c3.477-5.885,6.175-12.285,7.921-19.068h20.823V236.563z M318.707,251.69c-18.566,0-33.616-15.051-33.616-33.616
	s15.05-33.616,33.616-33.616s33.616,15.051,33.616,33.616S337.274,251.69,318.707,251.69z"/>
<path style="fill:#F9B54C;" d="M411.152,236.563v-36.978h-20.82c-1.746-6.785-4.444-13.183-7.921-19.068l14.738-14.738
	l-26.146-26.146l-14.738,14.738c-5.884-3.477-12.283-6.175-19.068-7.921v-20.82H319.21v58.854
	c18.33,0.272,33.113,15.195,33.113,33.59s-14.782,33.318-33.113,33.59v58.854h17.986v-20.818c6.784-1.746,13.183-4.444,19.066-7.921
	l14.739,14.739l26.147-26.148l-14.739-14.739c3.477-5.885,6.175-12.285,7.921-19.068L411.152,236.563L411.152,236.563z"/>
<g>
</g>
<g>
</g>
<g>
</g>
<g>
</g>
<g>
</g>
<g>
</g>
<g>
</g>
<g>
</g>
<g>
</g>
<g>
</g>
<g>
</g>
<g>
</g>
<g>
</g>
<g>
</g>
<g>
</g>
</svg>
