<svg id="Layer_1" enable-background="new 0 0 511.833 511.833" height="512" viewBox="0 0 511.833 511.833" width="512" xmlns="http://www.w3.org/2000/svg"><g><path d="m15 447.605v-212.512c0-16.718 13.553-30.271 30.271-30.271h421.29c16.718 0 30.271 13.553 30.271 30.271v212.512c0 16.718-13.553 30.271-30.271 30.271h-421.29c-16.718 0-30.271-13.553-30.271-30.271z" fill="#fff5f5"/><circle cx="74.856" cy="341.629" fill="#273863" r="15.099"/><path d="m466.562 204.821h-212.47v273.055h212.47c16.719 0 30.271-13.553 30.271-30.271v-212.512c0-16.719-13.553-30.272-30.271-30.272z" fill="#e5e9f3"/><path d="m0 447.605v-212.512c0-24.963 20.309-45.271 45.271-45.271h421.29c24.963 0 45.271 20.309 45.271 45.271v212.512c0 24.963-20.309 45.271-45.271 45.271h-421.29c-24.962 0-45.271-20.309-45.271-45.271zm481.833-212.512c0-8.421-6.851-15.271-15.271-15.271h-421.291c-8.421 0-15.271 6.851-15.271 15.271v212.512c0 8.421 6.851 15.271 15.271 15.271h421.29c8.421 0 15.271-6.851 15.271-15.271v-212.512z" fill="#273863"/><path d="m466.562 189.821h-212.47v30h212.47c8.421 0 15.271 6.851 15.271 15.271v212.512c0 8.421-6.851 15.271-15.271 15.271h-212.47v30h212.47c24.963 0 45.271-20.309 45.271-45.271v-212.511c0-24.963-20.309-45.272-45.271-45.272z" fill="#0a0a33"/><g><path d="m422.638 366.196v-50.373c0-8.284 6.716-15 15-15s15 6.716 15 15v50.373c0 8.284-6.716 15-15 15s-15-6.715-15-15z" fill="#0a0a33"/></g><path d="m388.869 292.954-126.571-89.423c-5.268-3.722-12.327-3.66-17.53.158l-121.855 89.423c-3.827 2.808-6.098 7.262-6.125 12.008s2.194 9.226 5.989 12.077l121.855 91.566c2.667 2.004 5.838 3.008 9.011 3.008 3.082 0 6.167-.948 8.792-2.847l126.571-91.566c3.923-2.838 6.235-7.396 6.208-12.237s-2.39-9.373-6.345-12.167z" fill="#4dffff"/><path d="m388.869 292.971-126.571-89.423c-2.467-1.743-5.328-2.645-8.206-2.731v210.954c2.931-.088 5.845-1.023 8.343-2.829l126.571-91.566c3.923-2.838 6.235-7.396 6.208-12.237s-2.39-9.374-6.345-12.168z" fill="#00ddc1"/><path d="m388.869 200.021-126.571-89.423c-5.268-3.722-12.327-3.66-17.53.158l-121.855 89.423c-3.827 2.808-6.098 7.262-6.125 12.008s2.194 9.226 5.989 12.077l121.855 91.566c2.667 2.004 5.838 3.008 9.011 3.008 3.082 0 6.167-.948 8.792-2.847l126.571-91.566c3.923-2.838 6.235-7.396 6.208-12.237s-2.39-9.373-6.345-12.167z" fill="#fff587"/><path d="m388.869 111.129-126.572-89.423c-5.268-3.722-12.327-3.66-17.53.158l-121.855 89.423c-3.827 2.808-6.098 7.262-6.125 12.008s2.194 9.226 5.989 12.077l121.855 91.566c2.667 2.004 5.838 3.008 9.011 3.008 3.082 0 6.167-.948 8.792-2.847l126.571-91.566c3.923-2.838 6.235-7.396 6.208-12.237-.027-4.842-2.389-9.373-6.344-12.167z" fill="#ff6689"/><path d="m388.869 200.038-126.571-89.423c-2.467-1.743-5.328-2.645-8.206-2.731v210.954c2.931-.088 5.845-1.023 8.343-2.829l126.571-91.566c3.923-2.838 6.235-7.396 6.208-12.237s-2.39-9.374-6.345-12.168z" fill="#ffde46"/><path d="m388.869 111.146-126.572-89.423c-2.467-1.743-5.328-2.645-8.206-2.731v210.954c2.931-.088 5.845-1.023 8.343-2.829l126.571-91.566c3.923-2.838 6.235-7.396 6.208-12.237-.027-4.843-2.389-9.374-6.344-12.168z" fill="#ff008d"/></g></svg>