<svg height="512" viewBox="0 0 54 58" width="512" xmlns="http://www.w3.org/2000/svg"><g id="Page-1" fill="none" fill-rule="evenodd"><g id="047---1080" fill-rule="nonzero"><path id="Shape" d="m48 50h2c2.209139 0 4-1.790861 4-4v-42c0-2.209139-1.790861-4-4-4h-46c-2.209139 0-4 1.790861-4 4v42c0 2.209139 1.790861 4 4 4z" fill="#2fa8cc"/><path id="Shape" d="m30.67 31.33-14.67 18.67h-12c-2.209139 0-4-1.790861-4-4v-5.74l11.48-12.21 7.76-8.24c.1948819-.2063573.4678683-.3207873.7516458-.3150737.2837774.0057137.5519365.1310392.7383542.3450737l7.42 8.58z" fill="#3f5c6c"/><path id="Shape" d="m54 40.67v5.33c0 2.209139-1.790861 4-4 4h-34l14.63-18.62.04-.05 6.58-8.37c.1835977-.2359733.4639181-.3764437.7628454-.3822669.2989274-.0058233.5845059.1236231.7771546.3522669l6.87 8.01z" fill="#547580"/><circle id="Oval" cx="45" cy="9" fill="#f0c419" r="4"/><path id="Shape" d="m18 11c0 1.6568542-1.3431458 3-3 3h-8c-1.65685425 0-3-1.3431458-3-3 0-1.65685425 1.34314575-3 3-3 .45052504-.00030464.89516717.10230508 1.3.3-.19769492-.40483283-.30030464-.84947496-.3-1.3.00000005-1.65685421 1.34314579-2.99999991 3-2.99999991 1.6568542 0 3 1.3431457 3 2.99999991.0003046.45052504-.1023051.89516717-.3 1.3.4048328-.19769492.849475-.30030464 1.3-.3 1.6568542 0 3 1.34314575 3 3z" fill="#ecf0f1"/><path id="Shape" d="m37 16.6c-.0472366 1.3726964-1.1983025 2.4472036-2.571 2.4h-6.858c-.897945.063534-1.7562439-.3795024-2.2245683-1.1482768-.4683245-.7687744-.4683245-1.734672 0-2.5034464.4683244-.7687744 1.3266233-1.2118108 2.2245683-1.1482768.3845456-.0005861.7647506.0812517 1.115.24-.1686732-.3207202-.2568711-.6776299-.257-1.04.0924119-1.3518705 1.2159746-2.4012502 2.571-2.4012502s2.4785881 1.0493797 2.571 2.4012502c-.0001289.3623701-.0883268.7192798-.257 1.04.3502494-.1587483.7304544-.2405861 1.115-.24 1.3726975-.0472036 2.5237634 1.0273036 2.571 2.4z" fill="#ecf0f1"/><path id="Shape" d="m28.15 28.42-2.87 2.87c-.3930079.3899779-1.0269921.3899779-1.42 0l-3.15-3.15c-.3930079-.3899779-1.0269921-.3899779-1.42 0l-3.15 3.15c-.3930079.3899779-1.0269921.3899779-1.42 0l-3.24-3.24 7.76-8.24c.1948819-.2063573.4678683-.3207873.7516458-.3150737.2837774.0057137.5519365.1310392.7383542.3450737z" fill="#d1d4d1"/><path id="Shape" d="m45.66 30.94-2.66 2.77c-.1769394.186643-.4228169.2923536-.68.2923536s-.5030606-.1057106-.68-.2923536l-3.03-3.16c-.1769394-.186643-.4228169-.2923536-.68-.2923536s-.5030606.1057106-.68.2923536l-3.03 3.16c-.1769394.186643-.4228169.2923536-.68.2923536s-.5030606-.1057106-.68-.2923536l-2.23-2.33.04-.05 6.58-8.37c.1835977-.2359733.4639181-.3764437.7628454-.3822669.2989274-.0058233.5845059.1236231.7771546.3522669z" fill="#ecf0f1"/><rect id="Rectangle-path" fill="#ff5364" height="18" rx="1" width="46" x="4" y="40"/><g fill="#f3d55b"><path id="Shape" d="m14 53h-1v-9c-.0000863-.4043959-.2437275-.7689341-.6173454-.923678-.373618-.1547439-.8036603-.0692299-1.0896546.216678l-2 2c-.37897221.3923789-.37355237 1.0160848.01218142 1.4018186.3857338.3857338 1.00943968.3911536 1.40181858.0121814l.293-.293v6.586h-1c-.55228475 0-1 .4477153-1 1s.44771525 1 1 1h4c.5522847 0 1-.4477153 1-1s-.4477153-1-1-1z"/><path id="Shape" d="m21 43c-2.209139 0-4 1.790861-4 4v4c0 2.209139 1.790861 4 4 4s4-1.790861 4-4v-4c0-2.209139-1.790861-4-4-4zm2 8c0 1.1045695-.8954305 2-2 2s-2-.8954305-2-2v-4c0-1.1045695.8954305-2 2-2s2 .8954305 2 2z"/><path id="Shape" d="m41 43c-2.209139 0-4 1.790861-4 4v4c0 2.209139 1.790861 4 4 4s4-1.790861 4-4v-4c0-2.209139-1.790861-4-4-4zm2 8c0 1.1045695-.8954305 2-2 2s-2-.8954305-2-2v-4c0-1.1045695.8954305-2 2-2s2 .8954305 2 2z"/><path id="Shape" d="m35 46.5c-.1490337-2.0656278-1.9328688-3.6264835-4-3.5-2.0671312-.1264835-3.8509663 1.4343722-4 3.5.0143247.9709147.4568179 1.8859131 1.209 2.5-.7521821.6140869-1.1946753 1.5290853-1.209 2.5.1490337 2.0656278 1.9328688 3.6264835 4 3.5 2.0671312.1264835 3.8509663-1.4343722 4-3.5-.0143247-.9709147-.4568179-1.8859131-1.209-2.5.7521821-.6140869 1.1946753-1.5290853 1.209-2.5zm-2 5c0 .813-.916 1.5-2 1.5s-2-.687-2-1.5.916-1.5 2-1.5 2 .687 2 1.5zm-4-5c0-.813.916-1.5 2-1.5s2 .687 2 1.5-.916 1.5-2 1.5-2-.687-2-1.5z"/></g></g></g></svg>