<svg id="Capa_1" enable-background="new 0 0 511.922 511.922" height="512" viewBox="0 0 511.922 511.922" width="512" xmlns="http://www.w3.org/2000/svg"><g><g><path d="m456.049 93.306c-133.394-8.478-266.788-8.478-400.181 0-20.855 1.326-37.947 17.22-40.557 37.954-10.466 83.137-10.466 166.273 0 249.41 2.61 20.734 19.702 36.628 40.557 37.954 133.394 8.478 266.788 8.478 400.181 0 20.855-1.326 37.947-17.22 40.557-37.954 10.466-83.137 10.466-166.273 0-249.41-2.61-20.734-19.702-36.628-40.557-37.954z" fill="#f1f1f4"/><path d="m63.71 419.1c-2.61-.15-5.23-.31-7.84-.48-20.86-1.32-37.95-17.22-40.56-37.95-10.47-83.139-10.47-166.278 0-249.407 2.61-20.74 19.7-36.63 40.56-37.96 2.62-.17 5.24-.33 7.85-.48-11.02 7.1-18.81 18.8-20.54 32.529-10.96 87.069-10.96 174.148 0 261.217 1.73 13.731 9.52 25.431 20.53 32.531z" fill="#dfeaef"/><g><circle cx="102.099" cy="257.962" fill="#dd5790" r="58.977"/><path d="m115.35 315.452c-4.26.97-8.7 1.49-13.25 1.49-32.57 0-58.979-26.4-58.979-58.979 0-32.57 26.41-58.979 58.979-58.979 4.55 0 8.99.52 13.25 1.49-26.2 6.02-45.73 29.48-45.73 57.489 0 28.019 19.53 51.469 45.73 57.489z" fill="#da387d"/></g></g><g><path d="m504.047 130.319c-3.05-24.222-23.036-42.936-47.528-44.498-11.701-.739-22.138-1.349-31.907-1.865-4.14-.21-7.667 2.958-7.885 7.094-.218 4.137 2.958 7.667 7.094 7.885 9.717.513 20.104 1.12 31.749 1.855 17.314 1.104 31.443 14.311 33.595 31.402 10.343 82.129 10.343 165.416 0 247.545-2.152 17.092-16.281 30.298-33.594 31.402-132.455 8.421-266.774 8.421-399.226 0-17.314-1.104-31.443-14.31-33.595-31.401-10.333-82.13-10.333-165.417 0-247.546 2.152-17.091 16.281-30.298 33.594-31.402 112.094-7.129 225.773-8.237 337.882-3.292 4.135.176 7.641-3.024 7.823-7.162s-3.024-7.641-7.162-7.823c-112.646-4.969-226.867-3.855-339.496 3.308-24.488 1.562-44.474 20.275-47.524 44.499-10.489 83.372-10.489 167.919 0 251.292 3.05 24.222 23.036 42.936 47.525 44.498 66.543 4.23 133.554 6.346 200.565 6.346s134.023-2.115 200.566-6.346c24.488-1.562 44.474-20.275 47.524-44.498 10.5-83.373 10.5-167.92 0-251.293z"/><path d="m347.691 205.738c4.142 0 7.5-3.358 7.5-7.5s-3.358-7.5-7.5-7.5h-50.799c-4.142 0-7.5 3.358-7.5 7.5v120.56c0 4.142 3.358 7.5 7.5 7.5h50.799c4.142 0 7.5-3.358 7.5-7.5s-3.358-7.5-7.5-7.5h-43.299v-45.28h39.553c4.142 0 7.5-3.358 7.5-7.5s-3.358-7.5-7.5-7.5h-39.553v-45.28z"/><path d="m429.457 204.627c10.689 0 20.999 3.148 29.815 9.104 3.433 2.319 8.095 1.416 10.414-2.016 2.319-3.433 1.416-8.095-2.016-10.414-11.306-7.638-24.519-11.675-38.212-11.675-37.68 0-68.335 30.655-68.335 68.335s30.655 68.335 68.335 68.335c14.838 0 28.108-4.834 38.377-13.979 2.015-1.795 3.932-3.772 5.695-5.875 2.662-3.173 2.247-7.904-.927-10.566-3.173-2.661-7.904-2.247-10.566.927-1.299 1.548-2.705 3-4.179 4.313-7.584 6.755-17.14 10.18-28.4 10.18-29.409 0-53.335-23.926-53.335-53.335s23.925-53.334 53.334-53.334z"/><path d="m273.167 228.748c0-21.571-18.352-39.121-40.91-39.121h-32.332c-1.993 0-3.905.793-5.312 2.206-1.407 1.412-2.194 3.326-2.188 5.319 0 .001-.04 121.646-.04 121.646 0 4.142 3.358 7.5 7.5 7.5s7.5-3.358 7.5-7.5v-50.83c1.104-.006 2.292-.012 3.537-.019l49.114 55.804c1.482 1.685 3.552 2.545 5.633 2.545 1.76 0 3.527-.616 4.952-1.87 3.109-2.736 3.412-7.476.675-10.585l-40.461-45.973c.503 0 .984-.001 1.421-.001 22.559 0 40.911-17.55 40.911-39.121zm-40.91-24.121c14.045 0 25.91 11.046 25.91 24.121s-11.865 24.121-25.91 24.121c-5.665 0-17.062.056-24.651.097-.042-7.505-.133-40.54-.157-48.338h24.808z"/><path d="m102.098 309.435c-6.853 0-13.509-1.327-19.784-3.942-3.821-1.595-8.214.212-9.809 4.036-1.594 3.823.213 8.215 4.036 9.809 8.113 3.383 16.711 5.098 25.556 5.098 36.657 0 66.479-29.818 66.479-66.47 0-36.657-29.823-66.479-66.479-66.479-36.657 0-66.48 29.823-66.48 66.479 0 15.041 4.904 29.233 14.183 41.043 2.558 3.257 7.274 3.823 10.531 1.264s3.823-7.274 1.264-10.531c-7.182-9.141-10.978-20.129-10.978-31.776 0-28.386 23.094-51.479 51.48-51.479s51.479 23.094 51.479 51.479c.001 28.38-23.092 51.469-51.478 51.469z"/></g></g></svg>