<?xml version="1.0" encoding="iso-8859-1"?>
<!-- Generator: Adobe Illustrator 19.0.0, SVG Export Plug-In . SVG Version: 6.00 Build 0)  -->
<svg version="1.1" id="Capa_1" xmlns="http://www.w3.org/2000/svg" xmlns:xlink="http://www.w3.org/1999/xlink" x="0px" y="0px"
	 viewBox="0 0 512 512" style="enable-background:new 0 0 512 512;" xml:space="preserve">
<path style="fill:#415363;" d="M374.157,0H137.843c-12.747,0-23.084,10.337-23.084,23.084v153.468v70.621v241.743
	c0,12.747,10.337,23.084,23.084,23.084h236.323c12.738,0,23.075-10.337,23.075-23.084V247.172v-70.621V23.084
	C397.241,10.337,386.904,0,374.157,0z"/>
<g>
	<path style="fill:#657A88;" d="M271.122,317.793c-1.483,0-2.993-0.371-4.37-1.165c-4.228-2.419-5.703-7.812-3.284-12.041
		l55.49-97.103c2.419-4.228,7.812-5.694,12.041-3.284c4.228,2.419,5.703,7.812,3.284,12.041l-55.49,97.103
		C277.169,316.195,274.185,317.793,271.122,317.793z"/>
	<path style="fill:#657A88;" d="M300.138,44.138h-88.276c-4.873,0-8.828-3.955-8.828-8.828s3.955-8.828,8.828-8.828h88.276
		c4.873,0,8.828,3.955,8.828,8.828S305.011,44.138,300.138,44.138z"/>
	<path style="fill:#657A88;" d="M361.931,44.138h-8.828c-4.873,0-8.828-3.955-8.828-8.828s3.955-8.828,8.828-8.828h8.828
		c4.873,0,8.828,3.955,8.828,8.828S366.804,44.138,361.931,44.138z"/>
	<path style="fill:#657A88;" d="M266.955,485.517h-21.919c-8.572,0-15.519-6.947-15.519-15.528v-4.264
		c0-8.572,6.947-15.519,15.528-15.519h21.919c8.572,0,15.519,6.947,15.519,15.528v4.264
		C282.483,478.57,275.535,485.517,266.955,485.517z"/>
	<path style="fill:#657A88;" d="M300.138,423.724h-8.828c-4.873,0-8.828-3.955-8.828-8.828s3.955-8.828,8.828-8.828h8.828
		c4.873,0,8.828,3.955,8.828,8.828S305.011,423.724,300.138,423.724z"/>
	<path style="fill:#657A88;" d="M220.69,79.448h-8.828c-4.873,0-8.828-3.955-8.828-8.828s3.955-8.828,8.828-8.828h8.828
		c4.873,0,8.828,3.955,8.828,8.828S225.562,79.448,220.69,79.448z"/>
	<path style="fill:#657A88;" d="M397.241,72.863l-53.018,90.394c-2.463,4.211-1.05,9.613,3.151,12.085
		c1.404,0.83,2.94,1.209,4.458,1.209c3.028,0,5.976-1.562,7.627-4.361l37.782-64.433V72.863z"/>
	<path style="fill:#657A88;" d="M397.241,61.793h-61.793c-4.873,0-8.828,3.955-8.828,8.828s3.955,8.828,8.828,8.828h61.793V61.793z"
		/>
	<path style="fill:#657A88;" d="M397.241,196.74l-69.411,118.81c-2.463,4.211-1.042,9.613,3.169,12.076
		c1.404,0.821,2.931,1.209,4.44,1.209c3.037,0,5.994-1.562,7.627-4.378l54.175-92.716V196.74z"/>
	<path style="fill:#657A88;" d="M397.241,406.069h-61.793c-4.873,0-8.828,3.955-8.828,8.828s3.955,8.828,8.828,8.828h61.793V406.069
		z"/>
	<path style="fill:#657A88;" d="M176.552,406.069h-61.793v17.655h61.793c4.873,0,8.828-3.955,8.828-8.828
		S181.425,406.069,176.552,406.069z"/>
	<path style="fill:#657A88;" d="M176.552,61.793h-61.793v17.655h61.793c4.873,0,8.828-3.955,8.828-8.828
		S181.425,61.793,176.552,61.793z"/>
</g>
<g>
</g>
<g>
</g>
<g>
</g>
<g>
</g>
<g>
</g>
<g>
</g>
<g>
</g>
<g>
</g>
<g>
</g>
<g>
</g>
<g>
</g>
<g>
</g>
<g>
</g>
<g>
</g>
<g>
</g>
</svg>
