<?xml version="1.0" encoding="iso-8859-1"?>
<!-- Generator: Adobe Illustrator 19.0.0, SVG Export Plug-In . SVG Version: 6.00 Build 0)  -->
<svg version="1.1" id="Layer_1" xmlns="http://www.w3.org/2000/svg" xmlns:xlink="http://www.w3.org/1999/xlink" x="0px" y="0px"
	 viewBox="0 0 512 512" style="enable-background:new 0 0 512 512;" xml:space="preserve">
<circle style="fill:#FFD15D;" cx="256" cy="256" r="256"/>
<path style="fill:#F9B54C;" d="M512,256c0-0.159-0.005-0.315-0.005-0.472L397.457,140.99L177.845,305.678l-83.59,35.43
	l170.72,170.72C402.201,507.097,512,394.38,512,256z"/>
<path style="fill:#324A5E;" d="M389.549,338.704H122.452c-5.698,0-10.318-4.62-10.318-10.318V147.611
	c0-5.698,4.62-10.318,10.318-10.318h267.095c5.698,0,10.318,4.62,10.318,10.318v180.776
	C399.867,334.086,395.247,338.704,389.549,338.704z"/>
<path style="fill:#2B3B4E;" d="M389.549,137.294H254.997v201.411h134.553c5.698,0,10.318-4.618,10.318-10.318V147.611
	C399.867,141.912,395.247,137.294,389.549,137.294z"/>
<rect x="124.345" y="149.066" style="fill:#B5F1F4;" width="263.309" height="177.873"/>
<rect x="255" y="149.066" style="fill:#84DBFF;" width="132.663" height="177.873"/>
<path style="fill:#2B3B4E;" d="M409.314,345.4H102.688c-5.777,0-10.459-4.682-10.459-10.459v-18.894
	c0-5.777,4.682-10.459,10.459-10.459h306.626c5.777,0,10.459,4.682,10.459,10.459v18.894
	C419.773,340.718,415.089,345.4,409.314,345.4z"/>
<path style="fill:#222F3D;" d="M409.314,305.588H254.997V345.4h154.317c5.777,0,10.459-4.682,10.459-10.459v-18.894
	C419.773,310.27,415.089,305.588,409.314,305.588z"/>
<g>
	<path style="fill:#31BAFD;" d="M178.405,217.988l6.292,21.566l5.727-20.046c0.612-2.098,1.067-3.531,1.362-4.296
		c0.295-0.765,0.848-1.496,1.662-2.191c0.814-0.695,1.927-1.041,3.341-1.041c1.438,0,2.563,0.346,3.375,1.041
		s1.384,1.45,1.715,2.264c0.331,0.814,0.79,2.222,1.379,4.225l5.727,20.046l6.363-21.566c0.424-1.555,0.765-2.682,1.026-3.377
		s0.695-1.308,1.308-1.838c0.614-0.529,1.496-0.795,2.651-0.795c1.155,0,2.157,0.4,3.005,1.202c0.848,0.802,1.272,1.745,1.272,2.829
		c0,0.99-0.365,2.486-1.096,4.489l-7.883,23.121c-0.683,1.957-1.214,3.37-1.591,4.243c-0.378,0.872-0.972,1.65-1.786,2.334
		c-0.814,0.684-1.927,1.026-3.341,1.026c-1.462,0-2.61-0.365-3.448-1.096s-1.455-1.626-1.857-2.688s-0.836-2.439-1.308-4.136
		l-5.515-18.808l-5.339,18.808c-0.707,2.617-1.472,4.589-2.298,5.922c-0.826,1.333-2.274,1.998-4.348,1.998
		c-1.06,0-1.962-0.207-2.705-0.619c-0.743-0.412-1.362-1.002-1.857-1.767c-0.495-0.765-0.931-1.674-1.308-2.722
		s-0.672-1.879-0.884-2.491l-7.813-23.121c-0.777-2.169-1.167-3.665-1.167-4.489c0-1.038,0.412-1.969,1.238-2.793
		s1.838-1.238,3.041-1.238c1.603,0,2.688,0.453,3.253,1.36C177.164,214.25,177.769,215.797,178.405,217.988z"/>
	<path style="fill:#31BAFD;" d="M237.27,217.988l6.292,21.566l5.727-20.046c0.612-2.098,1.067-3.531,1.362-4.296
		c0.295-0.765,0.848-1.496,1.662-2.191s1.927-1.041,3.341-1.041c1.438,0,2.563,0.346,3.375,1.041s1.384,1.45,1.715,2.264
		c0.331,0.814,0.79,2.222,1.379,4.225l5.727,20.046l6.363-21.566c0.424-1.555,0.765-2.682,1.026-3.377s0.695-1.308,1.308-1.838
		c0.614-0.529,1.496-0.795,2.651-0.795c1.155,0,2.157,0.4,3.005,1.202c0.848,0.802,1.272,1.745,1.272,2.829
		c0,0.99-0.365,2.486-1.096,4.489l-7.883,23.121c-0.683,1.957-1.214,3.37-1.591,4.243c-0.378,0.872-0.972,1.65-1.786,2.334
		c-0.814,0.684-1.927,1.026-3.341,1.026c-1.462,0-2.61-0.365-3.448-1.096c-0.838-0.731-1.455-1.626-1.857-2.688
		s-0.836-2.439-1.308-4.136l-5.515-18.808l-5.339,18.808c-0.707,2.617-1.472,4.589-2.298,5.922
		c-0.826,1.333-2.274,1.998-4.348,1.998c-1.06,0-1.962-0.207-2.705-0.619c-0.743-0.412-1.362-1.002-1.857-1.767
		c-0.495-0.765-0.931-1.674-1.308-2.722c-0.378-1.048-0.672-1.879-0.884-2.491l-7.813-23.121c-0.777-2.169-1.167-3.665-1.167-4.489
		c0-1.038,0.412-1.969,1.238-2.793c0.826-0.824,1.838-1.238,3.041-1.238c1.603,0,2.688,0.453,3.253,1.36
		C236.029,214.25,236.634,215.797,237.27,217.988z"/>
</g>
<g>
	<path style="fill:#2B9ED8;" d="M282.203,213.18c-0.848-0.802-1.85-1.202-3.005-1.202c-1.155,0-2.039,0.264-2.651,0.795
		c-0.612,0.531-1.048,1.143-1.308,1.838c-0.26,0.695-0.602,1.822-1.026,3.377l-6.363,21.566l-5.727-20.046
		c-0.59-2.003-1.048-3.412-1.379-4.225c-0.331-0.814-0.902-1.567-1.715-2.263s-1.939-1.041-3.375-1.041
		c-0.231,0-0.441,0.024-0.657,0.043v14.789l0.657-2.317l5.515,18.808c0.471,1.696,0.907,3.075,1.308,4.136s1.019,1.957,1.857,2.688
		s1.986,1.096,3.448,1.096c1.414,0,2.527-0.341,3.341-1.026s1.408-1.462,1.786-2.334c0.378-0.872,0.907-2.286,1.591-4.243
		l7.883-23.121c0.731-2.003,1.096-3.5,1.096-4.489C283.476,214.924,283.052,213.982,282.203,213.18z"/>
	<path style="fill:#2B9ED8;" d="M296.133,217.988l6.292,21.566l5.727-20.046c0.612-2.098,1.067-3.531,1.362-4.296
		c0.295-0.765,0.848-1.496,1.662-2.191c0.814-0.695,1.927-1.041,3.341-1.041c1.438,0,2.563,0.346,3.375,1.041
		s1.384,1.45,1.715,2.264c0.331,0.814,0.79,2.222,1.379,4.225l5.727,20.046l6.363-21.566c0.424-1.555,0.765-2.682,1.026-3.377
		s0.695-1.308,1.308-1.838c0.614-0.529,1.496-0.795,2.651-0.795c1.155,0,2.157,0.4,3.005,1.202c0.848,0.802,1.272,1.745,1.272,2.829
		c0,0.99-0.365,2.486-1.096,4.489l-7.883,23.121c-0.683,1.957-1.214,3.37-1.591,4.243c-0.378,0.872-0.972,1.65-1.786,2.334
		c-0.814,0.684-1.927,1.026-3.341,1.026c-1.462,0-2.61-0.365-3.448-1.096c-0.838-0.731-1.455-1.626-1.857-2.688
		s-0.836-2.439-1.308-4.136l-5.515-18.808l-5.339,18.808c-0.707,2.617-1.472,4.589-2.298,5.922
		c-0.826,1.333-2.274,1.998-4.348,1.998c-1.06,0-1.962-0.207-2.705-0.619c-0.743-0.412-1.362-1.002-1.857-1.767
		c-0.495-0.765-0.931-1.674-1.308-2.722s-0.672-1.879-0.884-2.491l-7.813-23.121c-0.777-2.169-1.167-3.665-1.167-4.489
		c0-1.038,0.412-1.969,1.238-2.793c0.826-0.824,1.838-1.238,3.041-1.238c1.603,0,2.688,0.453,3.253,1.36
		C294.891,214.25,295.496,215.797,296.133,217.988z"/>
</g>
<g>
</g>
<g>
</g>
<g>
</g>
<g>
</g>
<g>
</g>
<g>
</g>
<g>
</g>
<g>
</g>
<g>
</g>
<g>
</g>
<g>
</g>
<g>
</g>
<g>
</g>
<g>
</g>
<g>
</g>
</svg>
