<?xml version="1.0" encoding="iso-8859-1"?>
<!-- Generator: Adobe Illustrator 19.0.0, SVG Export Plug-In . SVG Version: 6.00 Build 0)  -->
<svg version="1.1" id="Capa_1" xmlns="http://www.w3.org/2000/svg" xmlns:xlink="http://www.w3.org/1999/xlink" x="0px" y="0px"
	 viewBox="0 0 353.855 353.855" style="enable-background:new 0 0 353.855 353.855;" xml:space="preserve">
<path style="fill:#FFEACC;" d="M149.8,345.055c-47.6,0-86.4-38.8-86.4-86.4v-78.8c0-5.2,2-10,5.2-13.6l0.4-0.4
	c7.6-7.6,20-7.6,27.6-0.4l0.4,0.4c3.6,3.6,5.6,8.8,5.6,14c0,1.2,1.2,2.4,2.4,2.4s2.4-1.2,2.4-2.4c0-5.2,2-10,5.6-13.6l0.4-0.4
	c7.6-7.6,19.6-7.6,27.6-0.4l0.4,0.4c3.6,3.6,5.6,8.8,5.6,14c0,1.2,1.2,2.4,2.4,2.4s2.4-1.2,2.4-2.4c0-5.2,2-10,5.6-13.6l0.4-0.4
	c7.6-7.6,19.6-7.6,27.6-0.4l0.4,0.4c3.6,3.6,5.6,8.8,5.6,14c0,1.2,1.2,2.4,2.4,2.4s2.8-1.2,2.8-2.8v-96.8c0-10.8,8.8-19.6,20-19.6
	c5.2,0,10,2,13.6,5.6l0.4,0.4c3.6,3.6,5.6,8.8,5.6,14v176C236.2,306.255,197.4,344.655,149.8,345.055z"/>
<path style="fill:#F6D4A4;" d="M149.8,345.055L149.8,345.055v-162.8l0,0c-1.2,0-2.4-1.2-2.4-2.4l0,0c0-5.2-2-10-5.6-14l-0.4-0.4
	c-7.6-7.2-20-7.2-27.6,0.4l-0.4,0.4c-3.6,3.6-5.6,8.4-5.6,13.6c0,1.2-1.2,2.4-2.4,2.4s-2.4-1.2-2.4-2.4c0-5.2-2-10-5.6-14l-0.8-0.4
	c-7.6-7.2-20-7.2-27.6,0.4l-0.4,0.4c-3.6,3.6-5.6,8.4-5.6,13.6v78.8C63.4,306.255,102.2,345.055,149.8,345.055z"/>
<g>
	<path style="fill:#351713;" d="M160.2,141.855c2.8,2.4,6.8,2,9.2-0.8c2-2.4,2-6-0.4-8.4c-27.6-26.4-28.8-70.4-2.4-98
		s70-28.8,98-2.4s28.8,70.4,2.4,98c-3.2,3.2-6.4,6-10,8.8c-3.2,1.6-4.8,5.2-3.2,8.4s5.2,4.8,8.4,3.2c0.8-0.4,1.6-0.8,2-1.6
		c37.2-26.4,45.6-77.6,19.6-114.4c-26.4-37.2-77.6-45.6-114.4-19.6s-45.6,77.6-19.6,114.4
		C152.6,133.855,156.2,137.855,160.2,141.855L160.2,141.855z"/>
	<path style="fill:#351713;" d="M216.6,39.855c23.6,0,42.4,19.2,42.4,42.4c0,6.8-1.6,14-4.8,20c-1.6,3.2,0,7.2,3.2,8.4
		c2.8,1.2,6.4,0.4,8-2.4c14.4-27.2,4-60.8-23.2-74.8c-27.2-14.4-60.8-4-74.8,23.2c-8.4,16-8.8,35.2-0.4,51.2
		c1.6,3.2,5.6,4.4,8.8,2.8c3.2-1.6,4.4-5.6,2.8-8.8l0,0c-10.8-20.8-2.4-46.8,18.4-57.2C203.4,41.455,209.8,39.855,216.6,39.855z"/>
	<path style="fill:#351713;" d="M149.8,353.855c52.8,0,95.2-42.8,95.6-95.2v-176c0-7.6-3.2-14.8-8.4-20.4l-0.4-0.4
		c-11.6-10.8-29.6-10.8-40.4,0.8c-5.2,5.2-8,12.4-8,20v73.2c-11.2-7.6-26.4-6-36,3.6l-0.4,0.4c-0.4,0.4-1.2,1.2-1.6,2
		c-0.8-0.8-1.2-1.6-2-2l-0.4-0.4c-11.2-10.8-28.8-10.8-40,0.4l-0.4,0.4c-0.4,0.4-1.2,1.2-1.6,2c-0.8-0.8-1.2-1.6-2-2l-0.4-0.4
		c-11.2-10.8-28.8-10.8-40,0.4l-0.4,0.4c-5.2,5.2-8,12.4-8,20v78.8C55,311.055,97.4,353.855,149.8,353.855L149.8,353.855z
		 M67.4,179.855c0-4,1.6-8,4.4-10.8l0.4-0.4c6-6,16-6,22-0.4l0.4,0.4c2.8,2.8,4.8,6.8,4.8,11.2c0,3.6,2.8,6.4,6.4,6.4
		s6.4-2.8,6.4-6.4c0-4,1.6-8,4.4-10.8l0.4-0.4c6-6,16-6,22-0.4l0.4,0.4c2.8,2.8,4.8,6.8,4.8,11.2c0,3.6,2.8,6.4,6.4,6.4
		s6.4-2.8,6.4-6.4c0-4,1.6-8,4.4-10.8l0.4-0.4c6-6,16-6.4,22-0.4l0.4,0.4c2.8,2.8,4.8,6.8,4.8,11.2c0,3.6,2.8,6.4,6.4,6.4
		s6.4-2.8,6.4-6.4v-97.2c0-8.8,7.2-15.6,16-15.6c4,0,8,1.6,10.8,4.4l0.4,0.4c2.8,2.8,4.8,6.8,4.8,11.2v176
		c0,45.6-36.8,82.4-82.4,82.4s-82.4-36.8-82.4-82.4L67.4,179.855z"/>
</g>
<g>
</g>
<g>
</g>
<g>
</g>
<g>
</g>
<g>
</g>
<g>
</g>
<g>
</g>
<g>
</g>
<g>
</g>
<g>
</g>
<g>
</g>
<g>
</g>
<g>
</g>
<g>
</g>
<g>
</g>
</svg>
