<svg id="Capa_1" enable-background="new 0 0 512 512" height="512" viewBox="0 0 512 512" width="512" xmlns="http://www.w3.org/2000/svg" xmlns:xlink="http://www.w3.org/1999/xlink"><linearGradient id="SVGID_1_" gradientUnits="userSpaceOnUse" x1="0" x2="512" y1="252.822" y2="252.822"><stop offset="0" stop-color="#ffdbed" stop-opacity="0"/><stop offset="1" stop-color="#ffdbed"/></linearGradient><g><g><path d="m20.337 130.334c-23.967 39.398-26.493 107.613-8.937 150.256 15.377 37.351 45.966 72.41 86.12 76.801 14.766 1.615 29.858-1.024 44.472 1.638 50.257 9.152 68.952 71.09 108.01 104.014 27.182 22.913 64.898 31.021 100.174 26.607s68.302-20.363 97.376-40.824c22.957-16.157 44.436-36.022 55.764-61.707 23.744-53.839-4.19-118.501-47.587-158.239-13.516-12.377-28.581-23.294-39.875-37.727-11.293-14.434-18.48-33.695-13.099-51.214 4.293-13.977 15.849-24.812 20.227-38.763 5.958-18.984-3.035-40.281-17.802-53.616s-34.308-20.039-53.666-24.64c-81.103-19.281-258.823-11.525-331.177 107.414z" fill="url(#SVGID_1_)"/></g><g><g><g><path d="m350.232 497.161h-188.464c-16.569 0-30-13.431-30-30v-380.678c0-16.569 13.431-30 30-30h188.464c16.569 0 30 13.431 30 30v380.678c0 16.568-13.431 30-30 30z" fill="#2626bc" opacity=".1"/><path d="m350.232 473.161h-188.464c-16.569 0-30-13.431-30-30v-380.678c0-16.569 13.431-30 30-30h188.464c16.569 0 30 13.431 30 30v380.678c0 16.568-13.431 30-30 30z" fill="#6583fe"/><path d="m131.77 75.392h248.46v354.86h-248.46z" fill="#fff"/><path d="m350.232 478.161h-188.464c-19.299 0-35-15.701-35-35v-380.678c0-19.299 15.701-35 35-35h188.465c19.299 0 35 15.701 35 35v380.678c-.001 19.299-15.702 35-35.001 35zm-188.464-440.678c-13.785 0-25 11.215-25 25v380.678c0 13.785 11.215 25 25 25h188.465c13.785 0 25-11.215 25-25v-380.678c0-13.785-11.215-25-25-25z" fill="#2626bc"/><g><path d="m273.483 59.853h-34.966c-2.761 0-5-2.239-5-5s2.239-5 5-5h34.966c2.761 0 5 2.239 5 5s-2.239 5-5 5z" fill="#b7c5ff"/></g><circle cx="296.813" cy="54.851" fill="#b7c5ff" r="5.002"/></g><path d="m351.45 109.252v84.9c0 5.52-4.48 10-10 10h-170.9c-5.52 0-10-4.48-10-10v-84.9c0-5.52 4.48-10 10-10h170.9c5.52 0 10 4.48 10 10z" fill="#9fb0fe"/><path d="m351.45 128.292v65.86c0 5.52-4.48 10-10 10h-121.88c-.37-3.14-.56-6.34-.56-9.58 0-45.73 37.07-82.8 82.81-82.8 18.61 0 35.8 6.15 49.63 16.52z" fill="#8399fe"/><path d="m351.45 390.562v39.69h-190.9v-39.69c0-5.52 4.48-10 10-10h170.9c5.52 0 10 4.48 10 10z" fill="#02ffb3"/><path d="m239.06 405.412c0 8.94-2.14 17.38-5.93 24.84h-72.58v-39.69c0-5.52 4.48-10 10-10h62.58c3.79 7.47 5.93 15.91 5.93 24.85z" fill="#97ffd2"/><g><g><path d="m244.294 277.534h-78.742c-2.761 0-5-2.239-5-5v-39.739c0-2.761 2.239-5 5-5h78.742c2.761 0 5 2.239 5 5v39.739c0 2.762-2.239 5-5 5z" fill="#ff7eb8"/><path d="m346.449 277.534h-78.742c-2.761 0-5-2.239-5-5v-39.739c0-2.761 2.239-5 5-5h78.742c2.761 0 5 2.239 5 5v39.739c0 2.762-2.239 5-5 5z" fill="#02ffb3"/></g><g><path d="m244.294 338.92h-78.742c-2.761 0-5-2.239-5-5v-39.739c0-2.761 2.239-5 5-5h78.742c2.761 0 5 2.239 5 5v39.739c0 2.761-2.239 5-5 5z" fill="#8399fe"/><path d="m346.449 338.92h-78.742c-2.761 0-5-2.239-5-5v-39.739c0-2.761 2.239-5 5-5h78.742c2.761 0 5 2.239 5 5v39.739c0 2.761-2.239 5-5 5z" fill="#ffc4df"/></g></g><g><g><path d="m251.668 157.981h-65.681c-2.761 0-5 2.239-5 5s2.239 5 5 5h65.681c2.761 0 5-2.239 5-5s-2.238-5-5-5z" fill="#fff"/></g><g><path d="m251.668 138.553h-65.681c-2.761 0-5 2.239-5 5s2.239 5 5 5h65.681c2.761 0 5-2.239 5-5s-2.238-5-5-5z" fill="#fff"/></g><g><path d="m197.668 115.208h-11.681c-2.761 0-5 2.239-5 5s2.239 5 5 5h11.681c2.761 0 5-2.239 5-5s-2.238-5-5-5z" fill="#ffc4df"/></g></g><g><path d="m207.232 360.128h-41.681c-2.761 0-5 2.239-5 5s2.239 5 5 5h41.681c2.761 0 5-2.239 5-5s-2.239-5-5-5z" fill="#8399fe"/></g><path d="m351.45 390.562v24.59c-18.95 0-34.32-15.36-34.32-34.31v-.28h24.32c5.52 0 10 4.48 10 10z" fill="#01eca5"/></g><path d="m421.705 167.419c-7.88 0-14.291-6.411-14.291-14.292s6.411-14.292 14.291-14.292c7.881 0 14.292 6.411 14.292 14.292s-6.411 14.292-14.292 14.292zm0-18.583c-2.366 0-4.291 1.925-4.291 4.292s1.925 4.292 4.291 4.292 4.292-1.925 4.292-4.292-1.926-4.292-4.292-4.292z" fill="#ff5ba8"/><path d="m430.997 210.191c-7.881 0-14.292-6.411-14.292-14.292s6.411-14.292 14.292-14.292c7.88 0 14.291 6.411 14.291 14.292s-6.411 14.292-14.291 14.292zm0-18.583c-2.366 0-4.292 1.925-4.292 4.292s1.926 4.292 4.292 4.292 4.291-1.925 4.291-4.292-1.925-4.292-4.291-4.292z" fill="#6583fe"/><path d="m83.007 123.288c-2.762 0-5-2.239-5-5 0-3.309-2.691-6-6-6-2.762 0-5-2.239-5-5s2.238-5 5-5c3.309 0 6-2.691 6-6 0-2.761 2.238-5 5-5s5 2.239 5 5c0 3.309 2.691 6 6 6 2.762 0 5 2.239 5 5s-2.238 5-5 5c-3.309 0-6 2.691-6 6 0 2.761-2.238 5-5 5z" fill="#01eca5"/><path d="m87.757 417.521c-2.762 0-5-2.239-5-5 0-3.309-2.691-6-6-6-2.762 0-5-2.239-5-5s2.238-5 5-5c3.309 0 6-2.691 6-6 0-2.761 2.238-5 5-5s5 2.239 5 5c0 3.309 2.691 6 6 6 2.762 0 5 2.239 5 5s-2.238 5-5 5c-3.309 0-6 2.691-6 6 0 2.761-2.238 5-5 5z" fill="#01eca5"/><path d="m72.007 369.565c-2.762 0-5-2.239-5-5 0-3.309-2.691-6-6-6-2.762 0-5-2.239-5-5s2.238-5 5-5c3.309 0 6-2.692 6-6 0-2.761 2.238-5 5-5s5 2.239 5 5c0 3.309 2.691 6 6 6 2.762 0 5 2.239 5 5s-2.238 5-5 5c-3.309 0-6 2.691-6 6 0 2.761-2.238 5-5 5z" fill="#ff5ba8"/></g></g></svg>