<svg id="Capa_1" enable-background="new 0 0 512 512" height="512" viewBox="0 0 512 512" width="512" xmlns="http://www.w3.org/2000/svg"><g><g><g><path d="m0 48.5h120v429h-120z" fill="#dfe1f7"/></g><g><path d="m392 48.5h120v429h-120z" fill="#cfcfe8"/></g></g><g><path d="m0 48.5h120v89.63h-120z" fill="#555c7c"/><path d="m392 48.5h120v89.63h-120z" fill="#adadd8"/></g><path d="m422 97.63v414.37h-332v-414.37l166.5-28.63z" fill="#eeefff"/><path d="m422 97.63v414.37h-165.5v-443z" fill="#dfe1f7"/><g><path d="m422 0v97.63h-232l-20-48.815 20-48.815z" fill="#555c7c"/></g><g><path d="m90 0h100v97.628h-100z" fill="#ff6e91"/></g><path d="m256 317-81.5-81.5c-10.21-10.21-15.83-23.79-15.83-38.23 0-14.43 5.62-28.01 15.83-38.22s23.79-15.83 38.23-15.83 28.02 5.62 38.23 15.83l5.04 5.04 25.333 63.577z" fill="#ff6e91"/><g><path d="m173.67 351.67h164.66v30h-164.66z" fill="#dfe1f7"/></g><g><path d="m211 411.67h90v30h-90z" fill="#dfe1f7"/></g><path d="m256.5 411.67h44.5v30h-44.5z" fill="#cfcfe8"/><path d="m256.5 351.67h81.83v30h-81.83z" fill="#cfcfe8"/><path d="m256.5 0h165.5v97.63h-165.5z" fill="#373b5b"/><path d="m353.33 197.27c0 14.44-5.62 28.02-15.83 38.23l-81.5 81.5v-152.91l.5-.5 4.54-4.54c10.21-10.21 23.79-15.83 38.23-15.83s28.02 5.62 38.23 15.83 15.83 23.79 15.83 38.22z" fill="#d8417b"/></g></svg>