<?xml version="1.0" encoding="iso-8859-1"?>
<!-- Generator: Adobe Illustrator 19.0.0, SVG Export Plug-In . SVG Version: 6.00 Build 0)  -->
<svg version="1.1" id="Capa_1" xmlns="http://www.w3.org/2000/svg" xmlns:xlink="http://www.w3.org/1999/xlink" x="0px" y="0px"
	 viewBox="0 0 512 512" style="enable-background:new 0 0 512 512;" xml:space="preserve">
<g>
	<path style="fill:#86F28B;" d="M256,361.693c-24.977,0-45.297,20.32-45.297,45.297s20.32,45.297,45.297,45.297
		c24.977,0,45.297-20.32,45.297-45.297S280.977,361.693,256,361.693z"/>
	<path style="fill:#86F28B;" d="M256,261.033c-45.668,0-86.496,21.087-113.28,54.03l49.221,49.221c0,0,22.957-32.753,64.06-32.753
		c40.264,0,64.06,32.753,64.06,32.753l49.221-49.221C342.496,282.12,301.668,261.033,256,261.033z"/>
	<path style="fill:#86F28B;" d="M256,130.175c81.739,0,155.307,35.623,206.023,92.145L512,172.343
		c-3.397-3.7-94.272-112.631-256-112.631c-161.937,0-252.603,108.93-256,112.631l49.977,49.977
		C100.693,165.797,174.261,130.175,256,130.175z"/>
	<path style="fill:#86F28B;" d="M256,160.373c-73.414,0-139.426,32.257-184.643,83.327l49.927,49.927
		c32.339-38.37,80.725-62.793,134.716-62.793s102.376,24.423,134.716,62.793l49.927-49.927
		C395.426,192.629,329.415,160.373,256,160.373z"/>
</g>
<g>
	<path style="fill:#66E26F;" d="M256,361.693L256,361.693v90.594l0,0c24.977,0,45.297-20.32,45.297-45.297
		S280.977,361.693,256,361.693z"/>
	<path style="fill:#66E26F;" d="M256,261.033L256,261.033v70.497l0,0c40.264,0,64.06,32.753,64.06,32.753l49.221-49.221
		C342.496,282.12,301.668,261.033,256,261.033z"/>
	<path style="fill:#66E26F;" d="M256,59.713L256,59.713v70.462l0,0c81.739,0,155.307,35.623,206.023,92.145L512,172.343
		C508.603,168.643,417.728,59.713,256,59.713z"/>
	<path style="fill:#66E26F;" d="M256,160.373L256,160.373v70.462l0,0c53.99,0,102.376,24.423,134.716,62.793l49.927-49.927
		C395.426,192.629,329.415,160.373,256,160.373z"/>
</g>
<g>
</g>
<g>
</g>
<g>
</g>
<g>
</g>
<g>
</g>
<g>
</g>
<g>
</g>
<g>
</g>
<g>
</g>
<g>
</g>
<g>
</g>
<g>
</g>
<g>
</g>
<g>
</g>
<g>
</g>
</svg>
